<svg width="25" height="25" viewBox="0 0 25 25" fill="none" xmlns="http://www.w3.org/2000/svg">
<path d="M23.06 12.75C23.06 11.97 22.99 11.22 22.86 10.5H12.5V14.76H18.42C18.16 16.13 17.38 17.29 16.21 18.07V20.84H19.78C21.86 18.92 23.06 16.1 23.06 12.75Z" fill="#4285F4"/>
<path d="M12.4997 23.4996C15.4697 23.4996 17.9597 22.5196 19.7797 20.8396L16.2097 18.0696C15.2297 18.7296 13.9797 19.1296 12.4997 19.1296C9.63969 19.1296 7.20969 17.1996 6.33969 14.5996H2.67969V17.4396C4.48969 21.0296 8.19969 23.4996 12.4997 23.4996Z" fill="#34A853"/>
<path d="M6.34 14.5903C6.12 13.9303 5.99 13.2303 5.99 12.5003C5.99 11.7703 6.12 11.0703 6.34 10.4103V7.57031H2.68C1.93 9.05031 1.5 10.7203 1.5 12.5003C1.5 14.2803 1.93 15.9503 2.68 17.4303L5.53 15.2103L6.34 14.5903Z" fill="#FBBC05"/>
<path d="M12.4997 5.88C14.1197 5.88 15.5597 6.44 16.7097 7.52L19.8597 4.37C17.9497 2.59 15.4697 1.5 12.4997 1.5C8.19969 1.5 4.48969 3.97 2.67969 7.57L6.33969 10.41C7.20969 7.81 9.63969 5.88 12.4997 5.88Z" fill="#EA4335"/>
</svg>
