<svg width="25" height="25" viewBox="0 0 25 25" fill="none" xmlns="http://www.w3.org/2000/svg">
<path d="M12.3932 2C14.4503 2 16.3529 2.39999 18.101 3.19998C19.8492 3.99996 21.2312 5.08778 22.247 6.46344C23.2629 7.83908 23.7708 9.33955 23.7708 10.9649C23.7708 12.5903 23.2629 14.0929 22.247 15.4728C21.2312 16.8527 19.8513 17.9426 18.1074 18.7426C16.3635 19.5425 14.4588 19.9426 12.3932 19.9426C11.7414 19.9426 11.0683 19.896 10.3742 19.8029C7.36048 21.8938 5.75628 22.952 5.56156 22.9774C5.46847 23.0113 5.37959 23.0071 5.29494 22.9647C5.26105 22.9393 5.23564 22.9055 5.21872 22.8631C5.2018 22.8208 5.19331 22.7827 5.19331 22.7488V22.6981C5.24412 22.3679 5.6293 20.9923 6.34887 18.5712C4.71503 17.7585 3.4177 16.6813 2.45687 15.3395C1.49604 13.9977 1.01562 12.5395 1.01562 10.9649C1.01562 9.33955 1.52355 7.83908 2.53941 6.46344C3.55527 5.08778 4.93725 3.99996 6.68539 3.19998C8.4335 2.39999 10.3361 2 12.3932 2ZM6.62825 13.3395V9.44112H7.63137C7.76684 9.44112 7.90864 9.39247 8.05677 9.29511C8.20494 9.19775 8.279 9.06444 8.279 8.89512C8.279 8.72581 8.21127 8.58402 8.07584 8.46973C7.94037 8.35545 7.80917 8.29831 7.68219 8.29831H4.38065C4.23673 8.29831 4.10129 8.34064 3.9743 8.4253C3.84732 8.50995 3.78383 8.64964 3.78383 8.84431C3.78383 9.03903 3.85156 9.1872 3.987 9.28878C4.12245 9.39036 4.27483 9.44112 4.44414 9.44112H5.44728V13.3395C5.44728 13.5511 5.49809 13.7247 5.59967 13.8601C5.70125 13.9955 5.84516 14.0633 6.03139 14.0633C6.21767 14.0633 6.36369 13.9871 6.46948 13.8347C6.57533 13.6823 6.62825 13.5173 6.62825 13.3395ZM12.1265 14.0633C12.4398 13.9448 12.5371 13.6443 12.4186 13.1617C12.3847 13.0517 12.1456 12.3935 11.7012 11.1871C11.2567 9.9808 11.0007 9.293 10.9329 9.12369C10.7044 8.57342 10.3911 8.29831 9.99327 8.29831C9.5615 8.29831 9.22714 8.57342 8.99009 9.12369C8.92236 9.26759 8.66417 9.96814 8.21548 11.2252C7.76684 12.4824 7.53402 13.1278 7.51709 13.1617C7.45784 13.2379 7.44303 13.3776 7.47266 13.5807C7.50228 13.784 7.59331 13.9236 7.74566 13.9998C7.91497 14.076 8.08006 14.0845 8.24089 14.0252C8.40177 13.9659 8.51178 13.877 8.57103 13.7585L8.87581 12.9205H11.0853C11.1784 13.2252 11.2461 13.4241 11.2885 13.5173C11.3308 13.6019 11.3773 13.6866 11.4282 13.7712C11.4789 13.8559 11.5721 13.9384 11.7075 14.0188C11.843 14.0993 11.9826 14.1141 12.1265 14.0633ZM15.5424 14.0633C15.7201 14.0633 15.8831 14.0083 16.0312 13.8982C16.1794 13.7882 16.2535 13.64 16.2535 13.4538C16.2535 13.2675 16.1857 13.1215 16.0503 13.0157C15.9148 12.9099 15.7455 12.857 15.5424 12.857H14.1328V9.02211C14.1328 8.84431 14.08 8.67927 13.9741 8.52688C13.8683 8.37448 13.7223 8.29831 13.536 8.29831C13.3498 8.29831 13.2059 8.36605 13.1043 8.50147C13.0027 8.63694 12.9519 8.81047 12.9519 9.02211V13.3395C12.9519 13.5511 13.0027 13.7247 13.1043 13.8601C13.2059 13.9955 13.3498 14.0633 13.536 14.0633C13.5445 14.0633 13.5593 14.0612 13.5805 14.057C13.6017 14.0527 13.6165 14.0506 13.625 14.0506C13.6334 14.0506 13.6482 14.0527 13.6694 14.057C13.6905 14.0612 13.7053 14.0633 13.7138 14.0633H15.5424ZM20.5454 13.9744C20.6894 13.8389 20.7613 13.6844 20.7613 13.5109C20.7613 13.3374 20.7063 13.1829 20.5962 13.0475C20.5454 12.9712 20.0121 12.2559 18.9963 10.9014C19.4873 10.402 19.9825 9.90252 20.482 9.40306C20.609 9.27608 20.6872 9.1258 20.7169 8.95227C20.7465 8.77873 20.6978 8.61575 20.5708 8.46341C20.4269 8.32794 20.2724 8.27291 20.1073 8.29831C19.9423 8.32372 19.7878 8.40837 19.6439 8.55228C19.6185 8.57769 19.5084 8.68981 19.3137 8.88875C19.119 9.08773 18.8672 9.34381 18.5582 9.65703C18.2492 9.97025 17.9762 10.2496 17.7392 10.4951V9.02211C17.7392 8.84431 17.6862 8.67927 17.5804 8.52688C17.4746 8.37448 17.3286 8.29831 17.1424 8.29831C16.9561 8.29831 16.8122 8.36605 16.7106 8.50147C16.609 8.63694 16.5582 8.81047 16.5582 9.02211V13.3395C16.5582 13.5511 16.609 13.7247 16.7106 13.8601C16.8122 13.9955 16.9561 14.0633 17.1424 14.0633C17.3286 14.0633 17.4746 13.9871 17.5804 13.8347C17.6862 13.6823 17.7392 13.5173 17.7392 13.3395V12.184C17.773 12.1501 17.8365 12.0845 17.9296 11.9871C18.0228 11.8898 18.0989 11.8115 18.1582 11.7522C18.7169 12.5141 19.2164 13.1871 19.6566 13.7712C19.7751 13.9321 19.9127 14.0358 20.0693 14.0824C20.2259 14.1289 20.3846 14.0929 20.5454 13.9744ZM9.21866 11.7776L9.99327 9.50464L10.7551 11.7776H9.21866Z" fill="black"/>
</svg>
